<svg width="32" height="32" viewBox="0 0 32 32" fill="none" xmlns="http://www.w3.org/2000/svg">
<g clip-path="url(#clip0_555_106)">
<path fill-rule="evenodd" clip-rule="evenodd" d="M15.6662 1C7.56578 1 0.999512 7.56627 0.999512 15.6667C0.999512 18.4387 1.76951 21.0347 3.10858 23.2464L1.80031 27.6934C1.7252 27.9487 1.72025 28.2195 1.786 28.4774C1.85175 28.7353 1.98577 28.9707 2.17396 29.1589C2.36215 29.3471 2.59757 29.4811 2.85546 29.5469C3.11335 29.6126 3.38419 29.6077 3.63951 29.5326L8.08645 28.2243C10.3725 29.6075 12.9942 30.337 15.6662 30.3334C23.7666 30.3334 30.3329 23.7671 30.3329 15.6667C30.3329 7.56627 23.7666 1 15.6662 1ZM12.3486 18.9857C15.3157 21.9514 18.1478 22.343 19.1481 22.3796C20.669 22.4354 22.1503 21.2738 22.7267 19.9259C22.7995 19.7582 22.8259 19.5741 22.8032 19.3927C22.7805 19.2113 22.7095 19.0394 22.5977 18.8948C21.7939 17.8681 20.7071 17.1304 19.6453 16.3971C19.4236 16.2438 19.1511 16.1823 18.885 16.2255C18.619 16.2687 18.38 16.4132 18.2182 16.6288L17.3382 17.9708C17.2919 18.043 17.2198 18.0947 17.1367 18.1154C17.0535 18.1361 16.9656 18.1243 16.8909 18.0823C16.2939 17.7405 15.4242 17.1597 14.7994 16.5349C14.1746 15.9101 13.629 15.08 13.3225 14.5212C13.2844 14.4502 13.2735 14.3679 13.2915 14.2894C13.3096 14.2109 13.3555 14.1416 13.4207 14.0944L14.7759 13.0883C14.9693 12.9201 15.0941 12.6867 15.1266 12.4325C15.159 12.1783 15.0969 11.921 14.9519 11.7096C14.2949 10.7475 13.5293 9.52427 12.419 8.71321C12.2757 8.60937 12.1079 8.54463 11.932 8.52534C11.7561 8.50605 11.5782 8.53289 11.4158 8.60321C10.0665 9.18107 8.89898 10.6624 8.95472 12.1863C8.99138 13.1865 9.38299 16.0187 12.3486 18.9857Z" fill="white" fill-opacity="0.8"/>
</g>
<defs>
<clipPath id="clip0_555_106">
<rect width="32" height="32" fill="white"/>
</clipPath>
</defs>
</svg>
