<svg width="398" height="45" viewBox="0 0 398 45" fill="none" xmlns="http://www.w3.org/2000/svg">
<path d="M21.5671 18.3246C20.7023 17.1084 19.6753 16.176 18.4861 15.5274C17.324 14.8787 15.851 14.5544 14.0673 14.5544C12.9322 14.5544 11.9052 14.7301 10.9863 15.0814C10.0944 15.4057 9.32414 15.8922 8.67551 16.5409C8.02687 17.1625 7.52688 17.9192 7.17554 18.8111C6.82419 19.703 6.64852 20.7029 6.64852 21.811C6.64852 22.8921 6.82419 23.8786 7.17554 24.7704C7.55391 25.6623 8.06741 26.4326 8.71605 27.0812C9.36468 27.7028 10.1349 28.1893 11.0268 28.5406C11.9457 28.892 12.9592 29.0676 14.0673 29.0676C15.851 29.0676 17.324 28.7433 18.4861 28.0947C19.6753 27.4461 20.7023 26.5136 21.5671 25.2974L25.4995 27.5677C24.3374 29.5406 22.8104 31.0406 20.9185 32.0676C19.0267 33.0676 16.7699 33.5676 14.1484 33.5676C12.3646 33.5676 10.7025 33.2973 9.16198 32.7568C7.62147 32.2162 6.29718 31.446 5.18909 30.446C4.081 29.419 3.20264 28.1758 2.554 26.7163C1.93239 25.2569 1.62159 23.6218 1.62159 21.811C1.62159 20.0003 1.94591 18.3651 2.59454 16.9057C3.24318 15.4463 4.12154 14.2166 5.22963 13.2166C6.36474 12.1896 7.68904 11.4058 9.20252 10.8653C10.743 10.3248 12.3917 10.0545 14.1484 10.0545C16.7699 10.0545 19.0267 10.568 20.9185 11.595C22.8104 12.595 24.3374 14.0814 25.4995 16.0544L21.5671 18.3246ZM36.6476 10.5815L44.5123 26.838H44.715L52.9041 10.5815H59.3904V33H54.404V17.3111H54.1608L46.5799 33H42.3232L35.026 17.3111H34.7828V33H29.8775V10.5815H36.6476ZM72.2061 25.1758H82.1788L78.1249 15.0814H76.3816L72.2061 25.1758ZM81.4491 10.5815L90.976 33H85.6247L84.1653 29.5947H70.3412L68.8818 33H63.4495L73.2195 10.5815H81.4491ZM108.256 10.5815C109.581 10.5815 110.797 10.7977 111.905 11.2302C113.04 11.6355 114.013 12.2301 114.824 13.0139C115.662 13.7706 116.31 14.6895 116.77 15.7706C117.256 16.8517 117.499 18.0543 117.499 19.3786C117.499 20.7029 117.256 21.9056 116.77 22.9867C116.31 24.0407 115.662 24.9461 114.824 25.7028C114.013 26.4326 113.04 27.0001 111.905 27.4055C110.797 27.8109 109.581 28.0136 108.256 28.0136H100.108V33H95.0404V10.5815H108.256ZM100.108 23.3921H108.054C109.351 23.3921 110.405 23.0542 111.216 22.3786C112.027 21.6759 112.432 20.6759 112.432 19.3786C112.432 18.0814 112.027 17.0679 111.216 16.3382C110.405 15.5814 109.351 15.203 108.054 15.203H100.108V23.3921ZM143.846 10.5815V15.122H134.725V33H129.658V15.122H120.536V10.5815H143.846Z" fill="#FE7B02"/>
<path d="M154.661 10.5815L162.526 26.838H162.728L170.918 10.5815H177.404V33H172.417V17.3111H172.174L164.593 33H160.337L153.039 17.3111H152.796V33H147.891V10.5815H154.661ZM202.625 10.5815V15.1625H187.341V19.2976H201.084V23.8786H187.341V28.3379H203.192V33H182.274V10.5815H202.625ZM231.423 10.5815V28.4595H234.058V37.2972H229.68L229.274 33H211.964L211.559 37.2972H207.18V28.4595H210.018L213.545 10.5815H231.423ZM215.288 28.4595H226.356V15.0003H217.68L215.288 28.4595ZM257.079 18.3246C256.215 17.1084 255.188 16.176 253.998 15.5274C252.836 14.8787 251.363 14.5544 249.58 14.5544C248.444 14.5544 247.417 14.7301 246.498 15.0814C245.607 15.4057 244.836 15.8922 244.188 16.5409C243.539 17.1625 243.039 17.9192 242.688 18.8111C242.336 19.703 242.161 20.7029 242.161 21.811C242.161 22.8921 242.336 23.8786 242.688 24.7704C243.066 25.6623 243.58 26.4326 244.228 27.0812C244.877 27.7028 245.647 28.1893 246.539 28.5406C247.458 28.892 248.471 29.0676 249.58 29.0676C251.363 29.0676 252.836 28.7433 253.998 28.0947C255.188 27.4461 256.215 26.5136 257.079 25.2974L261.012 27.5677C259.85 29.5406 258.323 31.0406 256.431 32.0676C254.539 33.0676 252.282 33.5676 249.661 33.5676C247.877 33.5676 246.215 33.2973 244.674 32.7568C243.134 32.2162 241.809 31.446 240.701 30.446C239.593 29.419 238.715 28.1758 238.066 26.7163C237.445 25.2569 237.134 23.6218 237.134 21.811C237.134 20.0003 237.458 18.3651 238.107 16.9057C238.755 15.4463 239.634 14.2166 240.742 13.2166C241.877 12.1896 243.201 11.4058 244.715 10.8653C246.255 10.3248 247.904 10.0545 249.661 10.0545C252.282 10.0545 254.539 10.568 256.431 11.595C258.323 12.595 259.85 14.0814 261.012 16.0544L257.079 18.3246ZM285.741 10.5815V15.1625H270.457V19.2976H284.2V23.8786H270.457V28.3379H286.308V33H265.39V10.5815H285.741ZM304.12 10.5815C305.445 10.5815 306.661 10.7977 307.769 11.2302C308.904 11.6355 309.877 12.2301 310.688 13.0139C311.526 13.7706 312.174 14.6895 312.634 15.7706C313.12 16.8517 313.363 18.0543 313.363 19.3786C313.363 20.7029 313.12 21.9056 312.634 22.9867C312.174 24.0407 311.526 24.9461 310.688 25.7028C309.877 26.4326 308.904 27.0001 307.769 27.4055C306.661 27.8109 305.445 28.0136 304.12 28.0136H295.972V33H290.904V10.5815H304.12ZM295.972 23.3921H303.918C305.215 23.3921 306.269 23.0542 307.08 22.3786C307.891 21.6759 308.296 20.6759 308.296 19.3786C308.296 18.0814 307.891 17.0679 307.08 16.3382C306.269 15.5814 305.215 15.203 303.918 15.203H295.972V23.3921ZM332.039 10.5815C333.039 10.5815 333.958 10.7302 334.796 11.0275C335.66 11.2977 336.404 11.7031 337.025 12.2436C337.647 12.7571 338.12 13.3788 338.444 14.1085C338.796 14.8382 338.971 15.6625 338.971 16.5814C338.971 17.3922 338.823 18.1354 338.525 18.8111C338.255 19.4597 337.823 19.9867 337.228 20.3921C338.255 20.9327 339.052 21.6624 339.62 22.5813C340.214 23.5002 340.512 24.6488 340.512 26.0272C340.512 27.0001 340.323 27.9055 339.944 28.7433C339.593 29.5811 339.079 30.3244 338.404 30.973C337.755 31.5946 336.971 32.0946 336.052 32.473C335.161 32.8243 334.188 33 333.134 33H317.607V10.5815H332.039ZM322.674 19.2165H332.201C332.742 19.2165 333.174 19.0138 333.498 18.6084C333.85 18.176 334.025 17.703 334.025 17.1895C334.025 16.703 333.863 16.2436 333.539 15.8111C333.242 15.3517 332.661 15.122 331.796 15.122H322.674V19.2165ZM322.674 28.419H332.971C333.782 28.419 334.417 28.2028 334.877 27.7704C335.336 27.3109 335.566 26.7299 335.566 26.0272C335.566 25.2974 335.336 24.7164 334.877 24.284C334.417 23.8515 333.823 23.6353 333.093 23.6353H322.674V28.419ZM349.732 10.5815V26.1488L363.07 10.5815H367.975V33H362.948V17.5138L349.651 33H344.705V10.5815H349.732ZM392.373 18.3246C391.508 17.1084 390.481 16.176 389.292 15.5274C388.13 14.8787 386.657 14.5544 384.873 14.5544C383.738 14.5544 382.711 14.7301 381.792 15.0814C380.9 15.4057 380.13 15.8922 379.481 16.5409C378.833 17.1625 378.333 17.9192 377.981 18.8111C377.63 19.703 377.454 20.7029 377.454 21.811C377.454 22.8921 377.63 23.8786 377.981 24.7704C378.36 25.6623 378.873 26.4326 379.522 27.0812C380.17 27.7028 380.941 28.1893 381.833 28.5406C382.751 28.892 383.765 29.0676 384.873 29.0676C386.657 29.0676 388.13 28.7433 389.292 28.0947C390.481 27.4461 391.508 26.5136 392.373 25.2974L396.305 27.5677C395.143 29.5406 393.616 31.0406 391.724 32.0676C389.832 33.0676 387.576 33.5676 384.954 33.5676C383.17 33.5676 381.508 33.2973 379.968 32.7568C378.427 32.2162 377.103 31.446 375.995 30.446C374.887 29.419 374.008 28.1758 373.36 26.7163C372.738 25.2569 372.427 23.6218 372.427 21.811C372.427 20.0003 372.752 18.3651 373.4 16.9057C374.049 15.4463 374.927 14.2166 376.035 13.2166C377.17 12.1896 378.495 11.4058 380.008 10.8653C381.549 10.3248 383.197 10.0545 384.954 10.0545C387.576 10.0545 389.832 10.568 391.724 11.595C393.616 12.595 395.143 14.0814 396.305 16.0544L392.373 18.3246Z" fill="#159F9F"/>
</svg>
