<svg xmlns="http://www.w3.org/2000/svg" xmlns:xlink="http://www.w3.org/1999/xlink"><defs>
<clipPath id="clip0_555_84">
<rect width="30" height="30" fill="white"/>
</clipPath>

<clipPath id="clip0_555_106">
<rect width="32" height="32" fill="white"/>
</clipPath>
</defs><symbol id="bg-contact" viewBox="0 0 471 471"><g fill="none">
<path fill-rule="evenodd" clip-rule="evenodd" d="M469.976 24.6179C471.578 17.8657 469.566 10.7654 464.658 5.85826C459.751 0.951097 452.651 -1.0615 445.899 0.540739L15.3831 102.697C7.19689 104.639 1.10169 111.497 0.133482 119.855C-0.83473 128.213 3.53109 136.283 11.0563 140.045L165.715 217.375L142.213 303.754C140.33 310.676 142.298 318.075 147.37 323.147C152.441 328.219 159.841 330.187 166.762 328.303L253.142 304.802L330.471 459.46C334.234 466.986 342.304 471.351 350.662 470.383C359.019 469.415 365.877 463.32 367.82 455.134L469.976 24.6179ZM281.757 272.588C281.644 272.352 281.527 272.118 281.406 271.887L263.242 235.559L414.766 84.0346L341.617 392.308L281.757 272.588ZM234.897 268.311L189.986 280.531L202.205 235.62L224 246.517L234.897 268.311ZM198.629 189.11L234.958 207.275L386.482 55.7503L78.2086 128.9L197.928 188.76C198.165 188.872 198.398 188.989 198.629 189.11ZM84.9855 310.633C92.796 302.823 92.796 290.159 84.9855 282.349C77.1751 274.538 64.5118 274.538 56.7013 282.349L5.85847 333.192C-1.95201 341.002 -1.95201 353.665 5.85848 361.476C13.669 369.286 26.3323 369.286 34.1427 361.476L84.9855 310.633ZM123.322 375.478C131.133 367.668 131.133 355.005 123.322 347.194C115.512 339.384 102.849 339.384 95.0381 347.194L5.85847 436.374C-1.95201 444.184 -1.95201 456.848 5.85848 464.658C13.669 472.469 26.3323 472.469 34.1427 464.658L123.322 375.478ZM188.168 413.815C195.978 406.005 195.978 393.342 188.168 385.531C180.357 377.721 167.694 377.721 159.884 385.531L109.041 436.374C101.23 444.184 101.23 456.848 109.041 464.658C116.851 472.469 129.515 472.469 137.325 464.658L188.168 413.815Z" fill="#0D2745" fill-opacity="0.08"/>
</g></symbol><symbol id="ico-QR" viewBox="0 0 87 86"><g fill="none">
<rect width="87" height="86" rx="43" fill="#159F9F"/>
<path d="M22.1826 31.1142V25.4398C22.1826 23.407 23.8305 21.759 25.8634 21.759H31.6145M22.1826 55.1924V60.5601C22.1826 62.5929 23.8305 64.2408 25.8633 64.2408H31.6145M55.9994 21.759H61.137C63.1699 21.759 64.8178 23.407 64.8178 25.4398V31.1142M64.8178 55.1924V60.5601C64.8178 62.5929 63.1699 64.2408 61.137 64.2408H55.9994" stroke="white" stroke-width="3"/>
<mask id="path-3-inside-1_495_87" fill="white">
<rect x="28.7773" y="27.8936" width="9.20183" height="9.20183" rx="0.306728"/>
</mask>
<rect x="28.7773" y="27.8936" width="9.20183" height="9.20183" rx="0.306728" stroke="white" stroke-width="6" mask="url(#path-3-inside-1_495_87)"/>
<mask id="path-4-inside-2_495_87" fill="white">
<rect x="49.9414" y="27.8936" width="9.20183" height="9.20183" rx="0.306728"/>
</mask>
<rect x="49.9414" y="27.8936" width="9.20183" height="9.20183" rx="0.306728" stroke="white" stroke-width="6" mask="url(#path-4-inside-2_495_87)"/>
<mask id="path-5-inside-3_495_87" fill="white">
<rect x="28.7773" y="49.0576" width="9.20183" height="9.20183" rx="0.306728"/>
</mask>
<rect x="28.7773" y="49.0576" width="9.20183" height="9.20183" rx="0.306728" stroke="white" stroke-width="6" mask="url(#path-5-inside-3_495_87)"/>
<path d="M40.126 43.23H44.1134V47.2174M44.1134 31.2676V37.2488M44.1134 58.7197V53.8121H50.5547V49.3645" stroke="white" stroke-width="3"/>
<rect x="30" y="40" width="6" height="6" rx="1" fill="white"/>
<rect x="50" y="41" width="9" height="6" rx="1" fill="white"/>
<rect x="55" y="50" width="5" height="9" rx="1" fill="white"/>
</g></symbol><symbol id="icon-cash" viewBox="0 0 86 86"><g fill="none">
<rect width="86" height="86" rx="43" fill="#159F9F"/>
<path d="M28 58C28 56.3325 25.7625 53 23 53C21.6739 53 20.4021 53.5268 19.4645 54.4645C18.5268 55.4021 18 56.6739 18 58C18 59.3261 18.5268 60.5979 19.4645 61.5355C20.4021 62.4732 21.6739 63 23 63C25.7625 63 28 59.6675 28 58ZM28 58C28 59.25 30.2375 63 33 63C34.3261 63 35.5979 62.4732 36.5355 61.5355C37.4732 60.5979 38 59.3261 38 58C38 56.6739 37.4732 55.4021 36.5355 54.4645C35.5979 53.5268 34.3261 53 33 53C30.2375 53 28 56.75 28 58ZM53 48C53 48.9946 53.3951 49.9484 54.0984 50.6517C54.8016 51.3549 55.7554 51.75 56.75 51.75C57.7446 51.75 58.6984 51.3549 59.4016 50.6517C60.1049 49.9484 60.5 48.9946 60.5 48C60.5 47.0054 60.1049 46.0516 59.4016 45.3483C58.6984 44.6451 57.7446 44.25 56.75 44.25C55.7554 44.25 54.8016 44.6451 54.0984 45.3483C53.3951 46.0516 53 47.0054 53 48Z" stroke="white" stroke-width="3" stroke-linecap="round" stroke-linejoin="round"/>
<path d="M45.5 63H53C60.07 63 63.6075 63 65.8025 60.8025C68 58.6075 68 55.07 68 48V45.5C68 38.43 68 34.8925 65.8025 32.6975C64.2 31.0925 61.8825 30.66 58 30.5425M58 30.5425C56.5625 30.5 54.91 30.5 53 30.5H38M58 30.5425C58 28.1725 58 26.9875 57.6075 26.055C57.1008 24.8545 56.1455 23.8992 54.945 23.3925C54.0125 23 52.825 23 50.4575 23H38C28.5725 23 23.8575 23 20.93 25.93C18.0025 28.86 18 31.0725 18 40.5V45.5" stroke="white" stroke-width="3" stroke-linecap="round" stroke-linejoin="round"/>
</g></symbol><symbol id="icon-email-dark" viewBox="0 0 32 32"><g fill="none">
<path fill-rule="evenodd" clip-rule="evenodd" d="M5.33317 5.33398H26.6665C28.1393 5.33398 29.3332 6.52789 29.3332 8.00065V24.0007C29.3332 25.4735 28.1393 26.6673 26.6665 26.6673H5.33317C3.86041 26.6673 2.6665 25.4735 2.6665 24.0007V8.00065C2.6665 6.52789 3.86041 5.33398 5.33317 5.33398ZM18.1998 20.6007L26.6665 14.6673V11.8673L16.8665 18.734C16.3453 19.0957 15.6544 19.0957 15.1332 18.734L5.33317 11.8673V14.6673L13.7998 20.6007C15.1212 21.5243 16.8785 21.5243 18.1998 20.6007Z" fill="#0D2745"/>
</g></symbol><symbol id="icon-phone-dark" viewBox="0 0 30 30"><g fill="none">
<g clip-path="url(#clip0_555_84)">
<path d="M15 0C6.71572 0 0 6.71572 0 15C0 23.2843 6.71572 30 15 30C23.2843 30 30 23.2843 30 15C30 6.71572 23.2843 0 15 0ZM9.60938 5.95825C9.91843 5.94003 10.1978 6.12475 10.4095 6.45263L12.4603 10.3418C12.6763 10.8026 12.5535 11.2961 12.2315 11.6253L11.2921 12.5647C11.2341 12.6441 11.196 12.7336 11.1951 12.832C11.5553 14.2264 12.648 15.5126 13.6121 16.3971C14.5762 17.2816 15.6123 18.4791 16.9574 18.7628C17.1237 18.8092 17.3273 18.8258 17.4463 18.7152L18.5376 17.6038C18.9143 17.3183 19.4593 17.1799 19.8615 17.4134H19.8798L23.5803 19.5978C24.1235 19.9383 24.1798 20.5964 23.7908 20.9967L21.2421 23.5254C20.8657 23.9114 20.3656 24.0412 19.8798 24.0417C17.7311 23.9774 15.7009 22.9228 14.0333 21.839C11.296 19.8477 8.78518 17.3779 7.20888 14.3939C6.60433 13.1427 5.89415 11.5462 5.96193 10.1496C5.96798 9.62418 6.11012 9.10945 6.48012 8.7708L9.02895 6.22197C9.2275 6.05303 9.42393 5.9692 9.60938 5.95825Z" fill="#0D2745"/>
</g>

</g></symbol><symbol id="icon-phone-light" viewBox="0 0 30 30"><g fill="none">
<path d="M15 0C6.71572 0 0 6.71572 0 15C0 23.2843 6.71572 30 15 30C23.2843 30 30 23.2843 30 15C30 6.71572 23.2843 0 15 0ZM9.60938 5.95825C9.91843 5.94003 10.1978 6.12475 10.4095 6.45263L12.4603 10.3418C12.6763 10.8026 12.5535 11.2961 12.2315 11.6253L11.2921 12.5647C11.2341 12.6441 11.196 12.7336 11.1951 12.832C11.5553 14.2264 12.648 15.5126 13.6121 16.3971C14.5762 17.2816 15.6123 18.4791 16.9574 18.7628C17.1237 18.8092 17.3273 18.8258 17.4463 18.7152L18.5376 17.6038C18.9143 17.3183 19.4593 17.1799 19.8615 17.4134H19.8798L23.5803 19.5978C24.1235 19.9383 24.1798 20.5964 23.7908 20.9967L21.2421 23.5254C20.8657 23.9114 20.3656 24.0412 19.8798 24.0417C17.7311 23.9774 15.7009 22.9228 14.0333 21.839C11.296 19.8477 8.78518 17.3779 7.20888 14.3939C6.60433 13.1427 5.89415 11.5462 5.96193 10.1496C5.96798 9.62418 6.11012 9.10945 6.48012 8.7708L9.02895 6.22197C9.2275 6.05303 9.42393 5.9692 9.60938 5.95825Z" fill="white" fill-opacity="0.8"/>
</g></symbol><symbol id="icon-telegram-dark" viewBox="0 0 32 32"><g fill="none">
<path d="M30 15C30 18.9782 28.4196 22.7936 25.6066 25.6066C22.7936 28.4196 18.9782 30 15 30C11.0218 30 7.20644 28.4196 4.3934 25.6066C1.58035 22.7936 0 18.9782 0 15C0 11.0218 1.58035 7.20644 4.3934 4.3934C7.20644 1.58035 11.0218 0 15 0C18.9782 0 22.7936 1.58035 25.6066 4.3934C28.4196 7.20644 30 11.0218 30 15ZM15.5381 11.0738C14.0781 11.6813 11.1619 12.9375 6.78938 14.8425C6.08063 15.1237 5.70875 15.4 5.67375 15.6712C5.6175 16.1269 6.18938 16.3069 6.9675 16.5525L7.29563 16.6556C8.06063 16.905 9.09188 17.1956 9.62625 17.2069C10.1137 17.2194 10.6562 17.0194 11.2537 16.6069C15.34 13.8494 17.4488 12.4556 17.58 12.4256C17.6737 12.4031 17.805 12.3769 17.8913 12.4556C17.9775 12.5344 17.97 12.6806 17.9606 12.72C17.9044 12.9619 15.66 15.0469 14.4994 16.1269C14.1375 16.4644 13.8806 16.7025 13.8281 16.7569C13.7126 16.8751 13.595 16.9913 13.4756 17.1056C12.7631 17.7919 12.2306 18.3056 13.5037 19.1456C14.1169 19.5506 14.6081 19.8825 15.0975 20.2162C15.63 20.58 16.1625 20.9419 16.8525 21.3956C17.0275 21.5106 17.1963 21.6275 17.3588 21.7463C17.9794 22.1887 18.54 22.5863 19.2281 22.5225C19.6294 22.485 20.0438 22.11 20.2537 20.985C20.7506 18.3281 21.7275 12.5737 21.9525 10.2019C21.9666 10.0047 21.9585 9.80658 21.9281 9.61125C21.9099 9.45376 21.8337 9.30871 21.7144 9.20438C21.5435 9.08707 21.3403 9.0261 21.1331 9.03C20.5706 9.03938 19.7025 9.34125 15.5381 11.0738Z" fill="#0D2745"/>
</g></symbol><symbol id="icon-telegram-light" viewBox="0 0 32 32"><g fill="none">
<path d="M30 15C30 18.9782 28.4196 22.7936 25.6066 25.6066C22.7936 28.4196 18.9782 30 15 30C11.0218 30 7.20644 28.4196 4.3934 25.6066C1.58035 22.7936 0 18.9782 0 15C0 11.0218 1.58035 7.20644 4.3934 4.3934C7.20644 1.58035 11.0218 0 15 0C18.9782 0 22.7936 1.58035 25.6066 4.3934C28.4196 7.20644 30 11.0218 30 15ZM15.5381 11.0738C14.0781 11.6813 11.1619 12.9375 6.78938 14.8425C6.08063 15.1237 5.70875 15.4 5.67375 15.6712C5.6175 16.1269 6.18938 16.3069 6.9675 16.5525L7.29563 16.6556C8.06063 16.905 9.09188 17.1956 9.62625 17.2069C10.1137 17.2194 10.6562 17.0194 11.2537 16.6069C15.34 13.8494 17.4488 12.4556 17.58 12.4256C17.6737 12.4031 17.805 12.3769 17.8913 12.4556C17.9775 12.5344 17.97 12.6806 17.9606 12.72C17.9044 12.9619 15.66 15.0469 14.4994 16.1269C14.1375 16.4644 13.8806 16.7025 13.8281 16.7569C13.7126 16.8751 13.595 16.9913 13.4756 17.1056C12.7631 17.7919 12.2306 18.3056 13.5037 19.1456C14.1169 19.5506 14.6081 19.8825 15.0975 20.2162C15.63 20.58 16.1625 20.9419 16.8525 21.3956C17.0275 21.5106 17.1963 21.6275 17.3588 21.7463C17.9794 22.1887 18.54 22.5863 19.2281 22.5225C19.6294 22.485 20.0438 22.11 20.2537 20.985C20.7506 18.3281 21.7275 12.5737 21.9525 10.2019C21.9666 10.0047 21.9585 9.80658 21.9281 9.61125C21.9099 9.45376 21.8337 9.30871 21.7144 9.20438C21.5435 9.08707 21.3403 9.0261 21.1331 9.03C20.5706 9.03938 19.7025 9.34125 15.5381 11.0738Z" fill="white" fill-opacity="0.8"/>
</g></symbol><symbol id="icon-whatsapp-dark" viewBox="0 0 32 32"><g fill="none">
<path fill-rule="evenodd" clip-rule="evenodd" d="M15.6662 1C7.56578 1 0.999512 7.56627 0.999512 15.6667C0.999512 18.4387 1.76951 21.0347 3.10858 23.2464L1.80031 27.6934C1.7252 27.9487 1.72025 28.2195 1.786 28.4774C1.85175 28.7353 1.98577 28.9707 2.17396 29.1589C2.36215 29.3471 2.59757 29.4811 2.85546 29.5469C3.11335 29.6126 3.38419 29.6077 3.63951 29.5326L8.08645 28.2243C10.3725 29.6075 12.9942 30.337 15.6662 30.3334C23.7666 30.3334 30.3329 23.7671 30.3329 15.6667C30.3329 7.56627 23.7666 1 15.6662 1ZM12.3486 18.9857C15.3157 21.9514 18.1478 22.343 19.1481 22.3796C20.669 22.4354 22.1503 21.2738 22.7267 19.9259C22.7995 19.7582 22.8259 19.5741 22.8032 19.3927C22.7805 19.2113 22.7095 19.0394 22.5977 18.8948C21.7939 17.8681 20.7071 17.1304 19.6453 16.3971C19.4236 16.2438 19.1511 16.1823 18.885 16.2255C18.619 16.2687 18.38 16.4132 18.2182 16.6288L17.3382 17.9708C17.2919 18.043 17.2198 18.0947 17.1367 18.1154C17.0535 18.1361 16.9656 18.1243 16.8909 18.0823C16.2939 17.7405 15.4242 17.1597 14.7994 16.5349C14.1746 15.9101 13.629 15.08 13.3225 14.5212C13.2844 14.4502 13.2735 14.3679 13.2915 14.2894C13.3096 14.2109 13.3555 14.1416 13.4207 14.0944L14.7759 13.0883C14.9693 12.9201 15.0941 12.6867 15.1266 12.4325C15.159 12.1783 15.0969 11.921 14.9519 11.7096C14.2949 10.7475 13.5293 9.52427 12.419 8.71321C12.2757 8.60937 12.1079 8.54463 11.932 8.52534C11.7561 8.50605 11.5782 8.53289 11.4158 8.60321C10.0665 9.18107 8.89898 10.6624 8.95472 12.1863C8.99138 13.1865 9.38299 16.0187 12.3486 18.9857Z" fill="#0D2745"/>
</g></symbol><symbol id="icon-whatsapp-light" viewBox="0 0 32 32"><g fill="none">
<g clip-path="url(#clip0_555_106)">
<path fill-rule="evenodd" clip-rule="evenodd" d="M15.6662 1C7.56578 1 0.999512 7.56627 0.999512 15.6667C0.999512 18.4387 1.76951 21.0347 3.10858 23.2464L1.80031 27.6934C1.7252 27.9487 1.72025 28.2195 1.786 28.4774C1.85175 28.7353 1.98577 28.9707 2.17396 29.1589C2.36215 29.3471 2.59757 29.4811 2.85546 29.5469C3.11335 29.6126 3.38419 29.6077 3.63951 29.5326L8.08645 28.2243C10.3725 29.6075 12.9942 30.337 15.6662 30.3334C23.7666 30.3334 30.3329 23.7671 30.3329 15.6667C30.3329 7.56627 23.7666 1 15.6662 1ZM12.3486 18.9857C15.3157 21.9514 18.1478 22.343 19.1481 22.3796C20.669 22.4354 22.1503 21.2738 22.7267 19.9259C22.7995 19.7582 22.8259 19.5741 22.8032 19.3927C22.7805 19.2113 22.7095 19.0394 22.5977 18.8948C21.7939 17.8681 20.7071 17.1304 19.6453 16.3971C19.4236 16.2438 19.1511 16.1823 18.885 16.2255C18.619 16.2687 18.38 16.4132 18.2182 16.6288L17.3382 17.9708C17.2919 18.043 17.2198 18.0947 17.1367 18.1154C17.0535 18.1361 16.9656 18.1243 16.8909 18.0823C16.2939 17.7405 15.4242 17.1597 14.7994 16.5349C14.1746 15.9101 13.629 15.08 13.3225 14.5212C13.2844 14.4502 13.2735 14.3679 13.2915 14.2894C13.3096 14.2109 13.3555 14.1416 13.4207 14.0944L14.7759 13.0883C14.9693 12.9201 15.0941 12.6867 15.1266 12.4325C15.159 12.1783 15.0969 11.921 14.9519 11.7096C14.2949 10.7475 13.5293 9.52427 12.419 8.71321C12.2757 8.60937 12.1079 8.54463 11.932 8.52534C11.7561 8.50605 11.5782 8.53289 11.4158 8.60321C10.0665 9.18107 8.89898 10.6624 8.95472 12.1863C8.99138 13.1865 9.38299 16.0187 12.3486 18.9857Z" fill="white" fill-opacity="0.8"/>
</g>

</g></symbol><symbol id="logo" viewBox="0 0 398 45"><g fill="none">
<path d="M21.5671 18.3246C20.7023 17.1084 19.6753 16.176 18.4861 15.5274C17.324 14.8787 15.851 14.5544 14.0673 14.5544C12.9322 14.5544 11.9052 14.7301 10.9863 15.0814C10.0944 15.4057 9.32414 15.8922 8.67551 16.5409C8.02687 17.1625 7.52688 17.9192 7.17554 18.8111C6.82419 19.703 6.64852 20.7029 6.64852 21.811C6.64852 22.8921 6.82419 23.8786 7.17554 24.7704C7.55391 25.6623 8.06741 26.4326 8.71605 27.0812C9.36468 27.7028 10.1349 28.1893 11.0268 28.5406C11.9457 28.892 12.9592 29.0676 14.0673 29.0676C15.851 29.0676 17.324 28.7433 18.4861 28.0947C19.6753 27.4461 20.7023 26.5136 21.5671 25.2974L25.4995 27.5677C24.3374 29.5406 22.8104 31.0406 20.9185 32.0676C19.0267 33.0676 16.7699 33.5676 14.1484 33.5676C12.3646 33.5676 10.7025 33.2973 9.16198 32.7568C7.62147 32.2162 6.29718 31.446 5.18909 30.446C4.081 29.419 3.20264 28.1758 2.554 26.7163C1.93239 25.2569 1.62159 23.6218 1.62159 21.811C1.62159 20.0003 1.94591 18.3651 2.59454 16.9057C3.24318 15.4463 4.12154 14.2166 5.22963 13.2166C6.36474 12.1896 7.68904 11.4058 9.20252 10.8653C10.743 10.3248 12.3917 10.0545 14.1484 10.0545C16.7699 10.0545 19.0267 10.568 20.9185 11.595C22.8104 12.595 24.3374 14.0814 25.4995 16.0544L21.5671 18.3246ZM36.6476 10.5815L44.5123 26.838H44.715L52.9041 10.5815H59.3904V33H54.404V17.3111H54.1608L46.5799 33H42.3232L35.026 17.3111H34.7828V33H29.8775V10.5815H36.6476ZM72.2061 25.1758H82.1788L78.1249 15.0814H76.3816L72.2061 25.1758ZM81.4491 10.5815L90.976 33H85.6247L84.1653 29.5947H70.3412L68.8818 33H63.4495L73.2195 10.5815H81.4491ZM108.256 10.5815C109.581 10.5815 110.797 10.7977 111.905 11.2302C113.04 11.6355 114.013 12.2301 114.824 13.0139C115.662 13.7706 116.31 14.6895 116.77 15.7706C117.256 16.8517 117.499 18.0543 117.499 19.3786C117.499 20.7029 117.256 21.9056 116.77 22.9867C116.31 24.0407 115.662 24.9461 114.824 25.7028C114.013 26.4326 113.04 27.0001 111.905 27.4055C110.797 27.8109 109.581 28.0136 108.256 28.0136H100.108V33H95.0404V10.5815H108.256ZM100.108 23.3921H108.054C109.351 23.3921 110.405 23.0542 111.216 22.3786C112.027 21.6759 112.432 20.6759 112.432 19.3786C112.432 18.0814 112.027 17.0679 111.216 16.3382C110.405 15.5814 109.351 15.203 108.054 15.203H100.108V23.3921ZM143.846 10.5815V15.122H134.725V33H129.658V15.122H120.536V10.5815H143.846Z" fill="#FE7B02"/>
<path d="M154.661 10.5815L162.526 26.838H162.728L170.918 10.5815H177.404V33H172.417V17.3111H172.174L164.593 33H160.337L153.039 17.3111H152.796V33H147.891V10.5815H154.661ZM202.625 10.5815V15.1625H187.341V19.2976H201.084V23.8786H187.341V28.3379H203.192V33H182.274V10.5815H202.625ZM231.423 10.5815V28.4595H234.058V37.2972H229.68L229.274 33H211.964L211.559 37.2972H207.18V28.4595H210.018L213.545 10.5815H231.423ZM215.288 28.4595H226.356V15.0003H217.68L215.288 28.4595ZM257.079 18.3246C256.215 17.1084 255.188 16.176 253.998 15.5274C252.836 14.8787 251.363 14.5544 249.58 14.5544C248.444 14.5544 247.417 14.7301 246.498 15.0814C245.607 15.4057 244.836 15.8922 244.188 16.5409C243.539 17.1625 243.039 17.9192 242.688 18.8111C242.336 19.703 242.161 20.7029 242.161 21.811C242.161 22.8921 242.336 23.8786 242.688 24.7704C243.066 25.6623 243.58 26.4326 244.228 27.0812C244.877 27.7028 245.647 28.1893 246.539 28.5406C247.458 28.892 248.471 29.0676 249.58 29.0676C251.363 29.0676 252.836 28.7433 253.998 28.0947C255.188 27.4461 256.215 26.5136 257.079 25.2974L261.012 27.5677C259.85 29.5406 258.323 31.0406 256.431 32.0676C254.539 33.0676 252.282 33.5676 249.661 33.5676C247.877 33.5676 246.215 33.2973 244.674 32.7568C243.134 32.2162 241.809 31.446 240.701 30.446C239.593 29.419 238.715 28.1758 238.066 26.7163C237.445 25.2569 237.134 23.6218 237.134 21.811C237.134 20.0003 237.458 18.3651 238.107 16.9057C238.755 15.4463 239.634 14.2166 240.742 13.2166C241.877 12.1896 243.201 11.4058 244.715 10.8653C246.255 10.3248 247.904 10.0545 249.661 10.0545C252.282 10.0545 254.539 10.568 256.431 11.595C258.323 12.595 259.85 14.0814 261.012 16.0544L257.079 18.3246ZM285.741 10.5815V15.1625H270.457V19.2976H284.2V23.8786H270.457V28.3379H286.308V33H265.39V10.5815H285.741ZM304.12 10.5815C305.445 10.5815 306.661 10.7977 307.769 11.2302C308.904 11.6355 309.877 12.2301 310.688 13.0139C311.526 13.7706 312.174 14.6895 312.634 15.7706C313.12 16.8517 313.363 18.0543 313.363 19.3786C313.363 20.7029 313.12 21.9056 312.634 22.9867C312.174 24.0407 311.526 24.9461 310.688 25.7028C309.877 26.4326 308.904 27.0001 307.769 27.4055C306.661 27.8109 305.445 28.0136 304.12 28.0136H295.972V33H290.904V10.5815H304.12ZM295.972 23.3921H303.918C305.215 23.3921 306.269 23.0542 307.08 22.3786C307.891 21.6759 308.296 20.6759 308.296 19.3786C308.296 18.0814 307.891 17.0679 307.08 16.3382C306.269 15.5814 305.215 15.203 303.918 15.203H295.972V23.3921ZM332.039 10.5815C333.039 10.5815 333.958 10.7302 334.796 11.0275C335.66 11.2977 336.404 11.7031 337.025 12.2436C337.647 12.7571 338.12 13.3788 338.444 14.1085C338.796 14.8382 338.971 15.6625 338.971 16.5814C338.971 17.3922 338.823 18.1354 338.525 18.8111C338.255 19.4597 337.823 19.9867 337.228 20.3921C338.255 20.9327 339.052 21.6624 339.62 22.5813C340.214 23.5002 340.512 24.6488 340.512 26.0272C340.512 27.0001 340.323 27.9055 339.944 28.7433C339.593 29.5811 339.079 30.3244 338.404 30.973C337.755 31.5946 336.971 32.0946 336.052 32.473C335.161 32.8243 334.188 33 333.134 33H317.607V10.5815H332.039ZM322.674 19.2165H332.201C332.742 19.2165 333.174 19.0138 333.498 18.6084C333.85 18.176 334.025 17.703 334.025 17.1895C334.025 16.703 333.863 16.2436 333.539 15.8111C333.242 15.3517 332.661 15.122 331.796 15.122H322.674V19.2165ZM322.674 28.419H332.971C333.782 28.419 334.417 28.2028 334.877 27.7704C335.336 27.3109 335.566 26.7299 335.566 26.0272C335.566 25.2974 335.336 24.7164 334.877 24.284C334.417 23.8515 333.823 23.6353 333.093 23.6353H322.674V28.419ZM349.732 10.5815V26.1488L363.07 10.5815H367.975V33H362.948V17.5138L349.651 33H344.705V10.5815H349.732ZM392.373 18.3246C391.508 17.1084 390.481 16.176 389.292 15.5274C388.13 14.8787 386.657 14.5544 384.873 14.5544C383.738 14.5544 382.711 14.7301 381.792 15.0814C380.9 15.4057 380.13 15.8922 379.481 16.5409C378.833 17.1625 378.333 17.9192 377.981 18.8111C377.63 19.703 377.454 20.7029 377.454 21.811C377.454 22.8921 377.63 23.8786 377.981 24.7704C378.36 25.6623 378.873 26.4326 379.522 27.0812C380.17 27.7028 380.941 28.1893 381.833 28.5406C382.751 28.892 383.765 29.0676 384.873 29.0676C386.657 29.0676 388.13 28.7433 389.292 28.0947C390.481 27.4461 391.508 26.5136 392.373 25.2974L396.305 27.5677C395.143 29.5406 393.616 31.0406 391.724 32.0676C389.832 33.0676 387.576 33.5676 384.954 33.5676C383.17 33.5676 381.508 33.2973 379.968 32.7568C378.427 32.2162 377.103 31.446 375.995 30.446C374.887 29.419 374.008 28.1758 373.36 26.7163C372.738 25.2569 372.427 23.6218 372.427 21.811C372.427 20.0003 372.752 18.3651 373.4 16.9057C374.049 15.4463 374.927 14.2166 376.035 13.2166C377.17 12.1896 378.495 11.4058 380.008 10.8653C381.549 10.3248 383.197 10.0545 384.954 10.0545C387.576 10.0545 389.832 10.568 391.724 11.595C393.616 12.595 395.143 14.0814 396.305 16.0544L392.373 18.3246Z" fill="#159F9F"/>
</g></symbol></svg>