<svg width="471" height="471" viewBox="0 0 471 471" fill="none" xmlns="http://www.w3.org/2000/svg">
<path fill-rule="evenodd" clip-rule="evenodd" d="M469.976 24.6179C471.578 17.8657 469.566 10.7654 464.658 5.85826C459.751 0.951097 452.651 -1.0615 445.899 0.540739L15.3831 102.697C7.19689 104.639 1.10169 111.497 0.133482 119.855C-0.83473 128.213 3.53109 136.283 11.0563 140.045L165.715 217.375L142.213 303.754C140.33 310.676 142.298 318.075 147.37 323.147C152.441 328.219 159.841 330.187 166.762 328.303L253.142 304.802L330.471 459.46C334.234 466.986 342.304 471.351 350.662 470.383C359.019 469.415 365.877 463.32 367.82 455.134L469.976 24.6179ZM281.757 272.588C281.644 272.352 281.527 272.118 281.406 271.887L263.242 235.559L414.766 84.0346L341.617 392.308L281.757 272.588ZM234.897 268.311L189.986 280.531L202.205 235.62L224 246.517L234.897 268.311ZM198.629 189.11L234.958 207.275L386.482 55.7503L78.2086 128.9L197.928 188.76C198.165 188.872 198.398 188.989 198.629 189.11ZM84.9855 310.633C92.796 302.823 92.796 290.159 84.9855 282.349C77.1751 274.538 64.5118 274.538 56.7013 282.349L5.85847 333.192C-1.95201 341.002 -1.95201 353.665 5.85848 361.476C13.669 369.286 26.3323 369.286 34.1427 361.476L84.9855 310.633ZM123.322 375.478C131.133 367.668 131.133 355.005 123.322 347.194C115.512 339.384 102.849 339.384 95.0381 347.194L5.85847 436.374C-1.95201 444.184 -1.95201 456.848 5.85848 464.658C13.669 472.469 26.3323 472.469 34.1427 464.658L123.322 375.478ZM188.168 413.815C195.978 406.005 195.978 393.342 188.168 385.531C180.357 377.721 167.694 377.721 159.884 385.531L109.041 436.374C101.23 444.184 101.23 456.848 109.041 464.658C116.851 472.469 129.515 472.469 137.325 464.658L188.168 413.815Z" fill="#0D2745" fill-opacity="0.08"/>
</svg>
