<svg width="86" height="86" viewBox="0 0 86 86" fill="none" xmlns="http://www.w3.org/2000/svg">
<rect width="86" height="86" rx="43" fill="#159F9F"/>
<path d="M28 58C28 56.3325 25.7625 53 23 53C21.6739 53 20.4021 53.5268 19.4645 54.4645C18.5268 55.4021 18 56.6739 18 58C18 59.3261 18.5268 60.5979 19.4645 61.5355C20.4021 62.4732 21.6739 63 23 63C25.7625 63 28 59.6675 28 58ZM28 58C28 59.25 30.2375 63 33 63C34.3261 63 35.5979 62.4732 36.5355 61.5355C37.4732 60.5979 38 59.3261 38 58C38 56.6739 37.4732 55.4021 36.5355 54.4645C35.5979 53.5268 34.3261 53 33 53C30.2375 53 28 56.75 28 58ZM53 48C53 48.9946 53.3951 49.9484 54.0984 50.6517C54.8016 51.3549 55.7554 51.75 56.75 51.75C57.7446 51.75 58.6984 51.3549 59.4016 50.6517C60.1049 49.9484 60.5 48.9946 60.5 48C60.5 47.0054 60.1049 46.0516 59.4016 45.3483C58.6984 44.6451 57.7446 44.25 56.75 44.25C55.7554 44.25 54.8016 44.6451 54.0984 45.3483C53.3951 46.0516 53 47.0054 53 48Z" stroke="white" stroke-width="3" stroke-linecap="round" stroke-linejoin="round"/>
<path d="M45.5 63H53C60.07 63 63.6075 63 65.8025 60.8025C68 58.6075 68 55.07 68 48V45.5C68 38.43 68 34.8925 65.8025 32.6975C64.2 31.0925 61.8825 30.66 58 30.5425M58 30.5425C56.5625 30.5 54.91 30.5 53 30.5H38M58 30.5425C58 28.1725 58 26.9875 57.6075 26.055C57.1008 24.8545 56.1455 23.8992 54.945 23.3925C54.0125 23 52.825 23 50.4575 23H38C28.5725 23 23.8575 23 20.93 25.93C18.0025 28.86 18 31.0725 18 40.5V45.5" stroke="white" stroke-width="3" stroke-linecap="round" stroke-linejoin="round"/>
</svg>
